<svg width="312" height="44" viewBox="0 0 312 44" fill="none" xmlns="http://www.w3.org/2000/svg">
<rect width="312" height="44" rx="22" fill="#39D3C6"/>
<path d="M281.6 19L275 25L272 22.2727" stroke="white" stroke-width="1.6" stroke-linecap="round" stroke-linejoin="round"/>
<path d="M149.16 18.614V20.144H152.094V23.96H153.948V14.114H152.094V18.614H149.16ZM150.168 21.926C147.684 21.206 146.208 19.442 146.208 17.588V17.444H149.628V15.968H146.226V14.042H144.354V15.968H140.934V17.444H144.354V17.588C144.354 19.622 142.95 21.548 140.448 22.322L141.348 23.762C143.256 23.168 144.624 21.89 145.344 20.27C146.082 21.692 147.45 22.826 149.304 23.348L150.168 21.926ZM148.53 28.946C146.226 28.946 144.912 28.37 144.912 27.344C144.912 26.318 146.226 25.76 148.53 25.76C150.852 25.76 152.166 26.318 152.166 27.344C152.166 28.37 150.852 28.946 148.53 28.946ZM148.53 24.32C145.128 24.32 143.058 25.436 143.058 27.344C143.058 29.252 145.128 30.386 148.53 30.386C151.932 30.386 154.02 29.252 154.02 27.344C154.02 25.436 151.932 24.32 148.53 24.32ZM170.887 21.818C167.683 21.278 165.073 18.866 165.073 16.346V15.122H163.111V16.346C163.111 18.848 160.501 21.278 157.279 21.818L158.071 23.366C160.717 22.844 163.021 21.224 164.101 19.064C165.145 21.224 167.449 22.844 170.113 23.366L170.887 21.818ZM165.001 26.84V23.042H163.147V26.84H156.793V28.37H171.517V26.84H165.001Z" fill="white"/>
</svg>
